PathFileType	4	(X/Y/Z)	Patient4_TMGait_0pt8_01_right_01.trc.trc
DataRate	CameraRate	NumFrames	NumMarkers	Units	OrigDataRate	OrigDataStartFrame	OrigNumFrames
86.956521739130	86.956521739130	5	33	mm	86.956521739130	71	       141
Frame#	Time	Sacral			L.Shoulder			Chest			R.Shoulder			Neck			R.ASIS			L.ASIS			R.Thigh.Superior			R.Thigh.Lateral			R.Thigh.Inferior			R.Patella			L.Thigh.Superior			L.Thigh.Lateral			L.Thigh.Inferior			L.Patella			L.Shank.Superior			L.Shank.Lateral			L.Shank.Inferior			R.Shank.Superior			R.Shank.Lateral			R.Shank.Inferior			R.Heel			R.Midfoot.Superior			R.Midfoot.Lateral			R.Toe			L.Heel			L.Midfoot.Lateral			L.Midfoot.Superior			L.Toe			L.Elbow			L.Wrist			R.Elbow			R.Wrist			
		X1	Y1	Z1	X2	Y2	Z2	X3	Y3	Z3	X4	Y4	Z4	X5	Y5	Z5	X6	Y6	Z6	X7	Y7	Z7	X8	Y8	Z8	X9	Y9	Z9	X10	Y10	Z10	X11	Y11	Z11	X12	Y12	Z12	X13	Y13	Z13	X14	Y14	Z14	X15	Y15	Z15	X16	Y16	Z16	X17	Y17	Z17	X18	Y18	Z18	X19	Y19	Z19	X20	Y20	Z20	X21	Y21	Z21	X22	Y22	Z22	X23	Y23	Z23	X24	Y24	Z24	X25	Y25	Z25	X26	Y26	Z26	X27	Y27	Z27	X28	Y28	Z28	X29	Y29	Z29	X30	Y30	Z30	X31	Y31	Z31	X32	Y32	Z32	X33	Y33	Z33	

71	1.545000000000	775.981389871068	1001.381177382146	476.319439769337	958.147048033672	1411.496290503472	271.472687325835	1068.194749543922	1343.462433906900	428.224129083887	1001.900939794703	1430.811833926188	602.002838740281	964.841246281432	1478.629304915694	424.689536188264	1002.641244034254	928.893328132738	586.308303555793	980.639340769747	939.610289639722	310.616634215272	990.131141766567	715.070366708645	560.461490695178	878.401399938993	626.568407780586	619.472699074755	935.043220588995	558.018018392022	539.660967165241	910.939724884858	473.063206745879	541.382072482665	1051.059505191797	763.211284457940	346.622414497816	1005.004212148900	632.457941313134	267.263677764706	1107.915313275239	576.596518346518	333.122771858907	1136.769153992168	516.907689838431	331.400802457320	1127.839951888862	446.163523425399	321.731615998408	1077.733082461749	307.755645585855	276.412492541970	1178.033528892617	222.657897115327	332.681393253724	868.174981244286	391.978315351232	547.432060130757	781.819775991171	301.591127465830	610.896176790497	802.269709195718	202.190941780241	544.030234553005	643.927831962069	49.312529990647	517.160046651768	818.500222170160	96.773869543757	546.494261356038	729.534140505856	39.087591524218	588.062333798854	937.373943374209	38.464637885996	570.258910554178	1117.887668690613	39.147594140897	378.372399658267	1191.908650879321	45.962279311058	298.620796666370	1255.120418337363	129.336791040145	316.241281785493	1391.039001806186	110.130546028971	292.913254311977	794.153231367533	1093.207883651885	207.777812218998	730.146600258145	842.961467582815	247.257376499453	1157.047306434870	1134.566675580776	713.685579068792	1371.434442554378	1229.463144100939	626.539022435333	
72	1.556500000000	777.763112171188	999.592123337685	473.237743487333	958.517111055387	1410.274872249901	269.509176149915	1068.508784266559	1342.779779618414	426.527470238607	1001.157086844020	1429.649874198120	600.119069647568	964.486566615947	1477.291022525992	422.833638635670	1003.961055031809	927.298516391891	584.541995712508	983.488662395049	938.016048186723	308.766842461430	990.077335816963	713.205391833395	559.080186553931	877.312256864432	625.601893663258	617.962471848777	933.654855960010	556.355389659594	538.438278801433	908.570833020798	470.987021951282	540.119060169765	1054.035151978875	761.512951302250	345.150008273153	1006.300185886045	630.128742946148	267.480186502980	1109.650836443443	574.775502442369	332.438804190614	1137.232227089263	513.962817061469	331.616668733141	1127.961822446472	442.824133589473	322.177741424155	1075.904456424374	304.921888311862	278.141569946138	1175.160391505533	218.986484466222	334.586242467676	864.448760043948	390.492505197575	546.364077021742	776.528249692710	301.714469289542	610.052705605408	795.259952667319	201.821748138460	543.620776429132	634.790130878098	50.489126573606	517.372632606367	809.674410716639	96.906055107824	546.442397032694	720.435176529535	39.581226688205	588.137795443208	928.257122898375	38.333408685121	570.350874940272	1112.140068974060	38.170958392180	381.475326656588	1184.977585973086	43.746608704822	300.526407303384	1250.751057947605	124.558204262930	318.227557638733	1385.621217747974	101.454626781692	292.450075226534	794.640349754804	1092.236503118696	205.830669752860	730.973877993086	841.743705334242	244.787737199327	1157.832100935545	1133.867117165172	710.595953582581	1368.991999226802	1234.720659157410	623.230006616724	
73	1.568000000000	779.583472119551	997.846257298643	470.088041704566	958.930170980317	1409.043990228840	267.370883069982	1068.885810416183	1342.141701681865	424.675529696895	1000.457618513443	1428.562573142158	598.105362854877	964.207142823044	1476.021139647460	420.767117423994	1005.318248976823	925.728435586766	582.721395224073	986.424949755831	936.513657742557	306.883005026307	990.392404026717	711.396329090134	557.656954806027	876.762834774226	624.514593715890	616.325682195523	933.011210602053	554.623925613625	537.152202660745	907.033928399890	468.658391858469	538.848580075684	1057.414203298541	760.218125767882	343.755849785010	1008.292004922055	628.304077968236	267.618964350051	1112.039341737135	573.460421950007	331.793560534837	1138.200723107369	511.284035359510	331.856450759972	1128.495362771719	439.659509966224	322.554069296194	1074.176706402158	302.490442227003	279.383578282173	1171.795312287191	215.272626081659	336.274050629715	861.353831209772	388.856674203912	545.236398905619	771.689445540099	301.911245369829	609.164199301925	788.527444984423	201.499719332231	543.223999367093	625.672609615954	51.986296609979	517.658280360124	800.987860735520	97.058295219532	546.450588848824	711.361609574540	40.198678352862	588.246095358167	919.147888617885	38.217790480078	570.424092256733	1104.845785871985	37.464569693176	384.074955013221	1176.621712611030	41.613409819665	302.013595383598	1245.314922812366	119.533667112968	320.047916575844	1379.045399789388	91.913057619862	291.974269087757	795.930059663052	1090.768089712080	203.534035125181	733.113032384966	839.896839137458	241.698645748551	1157.776449991352	1132.685533950242	707.834582042475	1366.015920698868	1238.588755134798	620.235319664232	
74	1.579500000000	781.397320589380	996.204300221581	466.922021254719	959.422561517480	1407.842344773062	265.065718628273	1069.336786533239	1341.567097144418	422.686402949776	999.837318237138	1427.606106213139	595.968518200233	964.039042991392	1474.876466039736	418.491947328255	1006.678521711633	924.245999350554	580.853486879539	989.377837678814	935.174250804971	304.981762424741	991.103333066746	709.705620422714	556.199598160348	876.815511569581	623.322575033719	614.563564360156	933.211900191624	552.858596916581	535.818347540995	906.467600861853	466.080212595667	537.632557172449	1061.052900058624	759.339793262476	342.450013031789	1010.912031756854	627.065285866756	267.533111404778	1114.941529714118	572.655744631030	331.129434503798	1139.599048141638	509.001158806828	332.012992420840	1129.415485184963	436.828315493454	322.758590243675	1072.733690441746	300.561427148769	279.980736327875	1168.203841265374	211.755486455004	337.616214866215	858.977159110236	387.102090402811	544.087407618469	767.371556712101	302.255495179717	608.246844260069	782.154233731710	201.292316965765	542.864928819281	616.625909032521	53.948744662660	518.009567285614	792.502002080310	97.229652574380	546.526538360487	702.336026621420	41.015447840119	588.383292785268	910.035271479035	38.100783831652	570.469130362572	1096.548699467607	37.054248159135	386.044642810537	1167.474780124409	39.687315755722	303.045526223038	1239.186922978910	114.621414204563	321.615377706067	1371.766574647096	82.254882740784	291.616455387953	798.060491625936	1088.831492009224	200.893112560794	736.585231824905	837.469111417283	238.036167783696	1156.827999980312	1131.034457724735	705.431232457633	1362.541504787870	1241.048131783479	617.549418233457	
75	1.591000000000	783.161040844316	994.730932479631	463.785460306474	960.020553970574	1406.718078723063	262.609219989350	1069.864316524009	1341.086845640475	420.584094094641	999.322174388010	1426.845018643727	593.718823718500	964.008830434356	1473.917007068519	416.016839149293	1008.006700543333	922.921231937192	578.938539655265	992.274057471784	934.075345600732	303.072197019109	992.234906696601	708.204209190003	554.704424494169	877.540364607517	622.053863481418	612.687754124382	934.361280980566	551.106362271738	534.460010228739	907.015590357713	463.276630876611	536.548771107880	1064.797383214272	758.886590307482	341.216671340409	1014.043123325846	626.457577351519	267.102281975492	1118.182325043719	572.341350248276	330.373762513629	1141.326116130202	507.208581626756	331.968860032751	1130.636315968461	434.443386640468	322.712100910807	1071.628601344218	299.200323025349	279.859585465500	1164.524077377207	208.624370719422	338.537036780518	857.420119248017	385.278790346693	542.972617984951	763.661098353959	302.839466709592	607.321228914333	776.246299575944	201.286221536758	542.571801726529	607.732229952407	56.562458430914	518.404020550056	784.295582992560	97.430658640409	546.674280355516	693.395902138029	42.140086704039	588.536814303469	900.907084539364	37.953930543177	570.478388610739	1087.681006512097	36.923771758590	387.349797665343	1158.009635196295	38.061145211945	303.634396094463	1232.602062476374	110.133833276053	322.869875767971	1364.091423834957	73.180346486430	291.436103584850	801.058571511433	1086.479560715326	197.920481862646	741.407054675358	834.532288244643	233.849717301592	1154.925640392528	1128.955188814701	703.400624521106	1358.602112417504	1242.075424426035	615.164073642858	
